<svg width="36" height="135" viewBox="0 0 36 135" fill="none" xmlns="http://www.w3.org/2000/svg">
<g filter="url(#filter0_dd_398_3067)">
<path d="M10.3588 19.4887C10.3588 14.3237 14.5458 10.1367 19.7108 10.1367C24.8758 10.1367 29.0629 14.3237 29.0629 19.4887C29.0629 24.6537 24.8758 28.8408 19.7108 28.8408C14.5458 28.8408 10.3588 24.6537 10.3588 19.4887Z" fill="#8EB5FF"/>
<path d="M16.7352 20.764L19.7108 17.7884L22.6865 20.764" stroke="white" stroke-width="0.850187" stroke-linecap="round" stroke-linejoin="round"/>
</g>
<g filter="url(#filter1_dd_398_3067)">
<path d="M10.3588 42.8689C10.3588 37.7039 14.5458 33.5168 19.7108 33.5168C24.8758 33.5168 29.0629 37.7039 29.0629 42.8689C29.0629 48.0339 24.8758 52.2209 19.7108 52.2209C14.5458 52.2209 10.3588 48.0339 10.3588 42.8689Z" fill="white"/>
<path d="M23.1116 40.1483C23.1116 39.9103 23.1114 39.7911 23.0651 39.7002C23.0243 39.6202 22.9595 39.5552 22.8795 39.5145C22.7886 39.4681 22.6693 39.4681 22.4312 39.4681H16.99C16.752 39.4681 16.633 39.4681 16.5421 39.5145C16.4621 39.5552 16.3971 39.6202 16.3564 39.7002C16.3101 39.7911 16.3101 39.9103 16.3101 40.1483V40.4617C16.3101 40.5657 16.3101 40.6177 16.3218 40.6667C16.3322 40.71 16.3494 40.7515 16.3727 40.7895C16.399 40.8324 16.4358 40.8692 16.5093 40.9427L18.6615 43.0948C18.735 43.1683 18.7715 43.2049 18.7978 43.2478C18.8211 43.2858 18.8386 43.3274 18.849 43.3708C18.8606 43.4192 18.8606 43.4706 18.8606 43.5725V45.5942C18.8606 45.9586 18.8606 46.1409 18.9374 46.2506C19.0044 46.3464 19.1078 46.4103 19.2234 46.4274C19.3559 46.447 19.519 46.3656 19.8449 46.2026L20.185 46.0326C20.3214 45.9644 20.3895 45.9301 20.4394 45.8792C20.4835 45.8342 20.5172 45.7801 20.5377 45.7206C20.561 45.6532 20.561 45.5767 20.561 45.4241V43.5756C20.561 43.4717 20.561 43.4197 20.5727 43.3708C20.5832 43.3274 20.6004 43.2858 20.6237 43.2478C20.6498 43.2052 20.6863 43.1687 20.7588 43.0962L20.7603 43.0948L22.9124 40.9427C22.9859 40.8692 23.0225 40.8324 23.0488 40.7895C23.0721 40.7515 23.0895 40.71 23.0999 40.6667C23.1116 40.6182 23.1116 40.5668 23.1116 40.4649V40.1483Z" stroke="#969696" stroke-width="0.850187" stroke-linecap="round" stroke-linejoin="round"/>
</g>
<g filter="url(#filter2_dd_398_3067)">
<path d="M10.3588 66.249C10.3588 61.084 14.5458 56.897 19.7108 56.897C24.8758 56.897 29.0629 61.084 29.0629 66.249C29.0629 71.414 24.8758 75.6011 19.7108 75.6011C14.5458 75.6011 10.3588 71.414 10.3588 66.249Z" fill="white"/>
<path d="M23.5367 67.0992L19.7108 69.6498L15.885 67.0992M23.5367 65.3988L19.7108 67.9494L15.885 65.3988L19.7108 62.8483L23.5367 65.3988Z" stroke="#969696" stroke-width="0.850187" stroke-linecap="round" stroke-linejoin="round"/>
</g>
<g filter="url(#filter3_dd_398_3067)">
<path d="M10.3588 89.6292C10.3588 84.4642 14.5458 80.2771 19.7108 80.2771C24.8758 80.2771 29.0629 84.4642 29.0629 89.6292C29.0629 94.7942 24.8758 98.9812 19.7108 98.9812C14.5458 98.9812 10.3588 94.7942 10.3588 89.6292Z" fill="white"/>
<path d="M19.7108 88.3539V90.0543M16.4711 90.9894C16.0845 91.659 15.8913 91.9939 15.9202 92.2687C15.9454 92.5083 16.0711 92.726 16.2661 92.8676C16.4895 93.0299 16.8758 93.0299 17.6485 93.0299H21.7731C22.5458 93.0299 22.9321 93.0299 23.1555 92.8676C23.3504 92.726 23.4763 92.5083 23.5015 92.2687C23.5303 91.9939 23.3371 91.659 22.9506 90.9894L20.889 87.4186C20.5024 86.749 20.309 86.4143 20.0566 86.3019C19.8365 86.2039 19.585 86.2039 19.3649 86.3019C19.1126 86.4142 18.9194 86.749 18.5331 87.418L16.4711 90.9894ZM19.7324 91.3296V91.3721L19.6896 91.3722V91.3296H19.7324Z" stroke="#969696" stroke-width="0.850187" stroke-linecap="round" stroke-linejoin="round"/>
</g>
<g filter="url(#filter4_dd_398_3067)">
<path d="M10.3588 113.009C10.3588 107.844 14.5458 103.657 19.7108 103.657C24.8758 103.657 29.0629 107.844 29.0629 113.009C29.0629 118.174 24.8758 122.361 19.7108 122.361C14.5458 122.361 10.3588 118.174 10.3588 113.009Z" fill="white"/>
<path d="M20.0823 115.347L20.494 115.453L20.0823 115.347ZM22.4739 114.072H22.899C22.899 113.837 22.7087 113.647 22.4739 113.647V114.072ZM22.0488 115.772C22.0488 116.007 22.2392 116.198 22.4739 116.198C22.7087 116.198 22.899 116.007 22.899 115.772H22.0488ZM17.5611 109.467C17.483 109.246 17.2402 109.13 17.0188 109.208C16.7974 109.286 16.6813 109.529 16.7594 109.75L17.5611 109.467ZM17.9854 111.947L17.5846 112.088L17.9854 111.947ZM21.1986 112.372C21.4334 112.372 21.6237 112.181 21.6237 111.947C21.6237 111.712 21.4334 111.521 21.1986 111.521V112.372ZM18.4355 116.198C17.7312 116.198 17.1603 115.627 17.1603 114.922H16.3101C16.3101 116.096 17.2617 117.048 18.4355 117.048V116.198ZM17.1603 114.922C17.1603 114.218 17.7312 113.647 18.4355 113.647V112.797C17.2617 112.797 16.3101 113.748 16.3101 114.922H17.1603ZM22.562 116.322C22.6106 116.371 22.6106 116.449 22.562 116.498L21.9608 115.897C21.6774 116.18 21.6774 116.64 21.9608 116.923L22.562 116.322ZM22.562 116.498C22.5133 116.547 22.4345 116.547 22.3859 116.498L22.9871 115.897C22.7037 115.614 22.2442 115.614 21.9608 115.897L22.562 116.498ZM22.3859 116.498C22.3373 116.449 22.3373 116.371 22.3859 116.322L22.9871 116.923C23.2705 116.64 23.2705 116.18 22.9871 115.897L22.3859 116.498ZM22.3859 116.322C22.4345 116.273 22.5133 116.273 22.562 116.322L21.9608 116.923C22.2442 117.207 22.7037 117.207 22.9871 116.923L22.3859 116.322ZM19.7108 114.922C19.7108 115.033 19.6968 115.14 19.6707 115.241L20.494 115.453C20.5378 115.283 20.561 115.105 20.561 114.922H19.7108ZM19.6707 115.241C19.5291 115.791 19.0292 116.198 18.4355 116.198V117.048C19.4265 117.048 20.2581 116.37 20.494 115.453L19.6707 115.241ZM18.4355 113.647C18.907 113.647 19.3193 113.903 19.5405 114.285L20.2764 113.859C19.9095 113.225 19.2228 112.797 18.4355 112.797V113.647ZM19.5405 114.285C19.6487 114.472 19.7108 114.689 19.7108 114.922H20.561C20.561 114.536 20.4575 114.172 20.2764 113.859L19.5405 114.285ZM19.9084 114.497H22.4739V113.647H19.9084V114.497ZM22.0488 114.072V115.772H22.899V114.072H22.0488ZM18.8364 113.08L18.3863 111.805L17.5846 112.088L18.0347 113.363L18.8364 113.08ZM18.3863 111.805L17.5611 109.467L16.7594 109.75L17.5846 112.088L18.3863 111.805ZM17.9854 112.372H21.1986V111.521H17.9854V112.372Z" fill="#969696"/>
</g>
<defs>
<filter id="filter0_dd_398_3067" x="0.358765" y="0.136688" width="40.7041" height="40.7041" filterUnits="userSpaceOnUse" color-interpolation-filters="sRGB">
<feFlood flood-opacity="0" result="BackgroundImageFix"/>
<feColorMatrix in="SourceAlpha" type="matrix" values="0 0 0 0 0 0 0 0 0 0 0 0 0 0 0 0 0 0 127 0" result="hardAlpha"/>
<feMorphology radius="1" operator="dilate" in="SourceAlpha" result="effect1_dropShadow_398_3067"/>
<feOffset dx="1" dy="1"/>
<feGaussianBlur stdDeviation="5"/>
<feComposite in2="hardAlpha" operator="out"/>
<feColorMatrix type="matrix" values="0 0 0 0 0 0 0 0 0 0 0 0 0 0 0 0 0 0 0.05 0"/>
<feBlend mode="normal" in2="BackgroundImageFix" result="effect1_dropShadow_398_3067"/>
<feColorMatrix in="SourceAlpha" type="matrix" values="0 0 0 0 0 0 0 0 0 0 0 0 0 0 0 0 0 0 127 0" result="hardAlpha"/>
<feMorphology radius="1" operator="dilate" in="SourceAlpha" result="effect2_dropShadow_398_3067"/>
<feOffset dx="1" dy="1"/>
<feGaussianBlur stdDeviation="5"/>
<feComposite in2="hardAlpha" operator="out"/>
<feColorMatrix type="matrix" values="0 0 0 0 0 0 0 0 0 0 0 0 0 0 0 0 0 0 0.05 0"/>
<feBlend mode="normal" in2="effect1_dropShadow_398_3067" result="effect2_dropShadow_398_3067"/>
<feBlend mode="normal" in="SourceGraphic" in2="effect2_dropShadow_398_3067" result="shape"/>
</filter>
<filter id="filter1_dd_398_3067" x="0.358765" y="23.5168" width="40.7041" height="40.7041" filterUnits="userSpaceOnUse" color-interpolation-filters="sRGB">
<feFlood flood-opacity="0" result="BackgroundImageFix"/>
<feColorMatrix in="SourceAlpha" type="matrix" values="0 0 0 0 0 0 0 0 0 0 0 0 0 0 0 0 0 0 127 0" result="hardAlpha"/>
<feMorphology radius="1" operator="dilate" in="SourceAlpha" result="effect1_dropShadow_398_3067"/>
<feOffset dx="1" dy="1"/>
<feGaussianBlur stdDeviation="5"/>
<feComposite in2="hardAlpha" operator="out"/>
<feColorMatrix type="matrix" values="0 0 0 0 0 0 0 0 0 0 0 0 0 0 0 0 0 0 0.05 0"/>
<feBlend mode="normal" in2="BackgroundImageFix" result="effect1_dropShadow_398_3067"/>
<feColorMatrix in="SourceAlpha" type="matrix" values="0 0 0 0 0 0 0 0 0 0 0 0 0 0 0 0 0 0 127 0" result="hardAlpha"/>
<feMorphology radius="1" operator="dilate" in="SourceAlpha" result="effect2_dropShadow_398_3067"/>
<feOffset dx="1" dy="1"/>
<feGaussianBlur stdDeviation="5"/>
<feComposite in2="hardAlpha" operator="out"/>
<feColorMatrix type="matrix" values="0 0 0 0 0 0 0 0 0 0 0 0 0 0 0 0 0 0 0.05 0"/>
<feBlend mode="normal" in2="effect1_dropShadow_398_3067" result="effect2_dropShadow_398_3067"/>
<feBlend mode="normal" in="SourceGraphic" in2="effect2_dropShadow_398_3067" result="shape"/>
</filter>
<filter id="filter2_dd_398_3067" x="0.358765" y="46.897" width="40.7041" height="40.7041" filterUnits="userSpaceOnUse" color-interpolation-filters="sRGB">
<feFlood flood-opacity="0" result="BackgroundImageFix"/>
<feColorMatrix in="SourceAlpha" type="matrix" values="0 0 0 0 0 0 0 0 0 0 0 0 0 0 0 0 0 0 127 0" result="hardAlpha"/>
<feMorphology radius="1" operator="dilate" in="SourceAlpha" result="effect1_dropShadow_398_3067"/>
<feOffset dx="1" dy="1"/>
<feGaussianBlur stdDeviation="5"/>
<feComposite in2="hardAlpha" operator="out"/>
<feColorMatrix type="matrix" values="0 0 0 0 0 0 0 0 0 0 0 0 0 0 0 0 0 0 0.05 0"/>
<feBlend mode="normal" in2="BackgroundImageFix" result="effect1_dropShadow_398_3067"/>
<feColorMatrix in="SourceAlpha" type="matrix" values="0 0 0 0 0 0 0 0 0 0 0 0 0 0 0 0 0 0 127 0" result="hardAlpha"/>
<feMorphology radius="1" operator="dilate" in="SourceAlpha" result="effect2_dropShadow_398_3067"/>
<feOffset dx="1" dy="1"/>
<feGaussianBlur stdDeviation="5"/>
<feComposite in2="hardAlpha" operator="out"/>
<feColorMatrix type="matrix" values="0 0 0 0 0 0 0 0 0 0 0 0 0 0 0 0 0 0 0.05 0"/>
<feBlend mode="normal" in2="effect1_dropShadow_398_3067" result="effect2_dropShadow_398_3067"/>
<feBlend mode="normal" in="SourceGraphic" in2="effect2_dropShadow_398_3067" result="shape"/>
</filter>
<filter id="filter3_dd_398_3067" x="0.358765" y="70.2771" width="40.7041" height="40.7041" filterUnits="userSpaceOnUse" color-interpolation-filters="sRGB">
<feFlood flood-opacity="0" result="BackgroundImageFix"/>
<feColorMatrix in="SourceAlpha" type="matrix" values="0 0 0 0 0 0 0 0 0 0 0 0 0 0 0 0 0 0 127 0" result="hardAlpha"/>
<feMorphology radius="1" operator="dilate" in="SourceAlpha" result="effect1_dropShadow_398_3067"/>
<feOffset dx="1" dy="1"/>
<feGaussianBlur stdDeviation="5"/>
<feComposite in2="hardAlpha" operator="out"/>
<feColorMatrix type="matrix" values="0 0 0 0 0 0 0 0 0 0 0 0 0 0 0 0 0 0 0.05 0"/>
<feBlend mode="normal" in2="BackgroundImageFix" result="effect1_dropShadow_398_3067"/>
<feColorMatrix in="SourceAlpha" type="matrix" values="0 0 0 0 0 0 0 0 0 0 0 0 0 0 0 0 0 0 127 0" result="hardAlpha"/>
<feMorphology radius="1" operator="dilate" in="SourceAlpha" result="effect2_dropShadow_398_3067"/>
<feOffset dx="1" dy="1"/>
<feGaussianBlur stdDeviation="5"/>
<feComposite in2="hardAlpha" operator="out"/>
<feColorMatrix type="matrix" values="0 0 0 0 0 0 0 0 0 0 0 0 0 0 0 0 0 0 0.05 0"/>
<feBlend mode="normal" in2="effect1_dropShadow_398_3067" result="effect2_dropShadow_398_3067"/>
<feBlend mode="normal" in="SourceGraphic" in2="effect2_dropShadow_398_3067" result="shape"/>
</filter>
<filter id="filter4_dd_398_3067" x="0.358765" y="93.6573" width="40.7041" height="40.7041" filterUnits="userSpaceOnUse" color-interpolation-filters="sRGB">
<feFlood flood-opacity="0" result="BackgroundImageFix"/>
<feColorMatrix in="SourceAlpha" type="matrix" values="0 0 0 0 0 0 0 0 0 0 0 0 0 0 0 0 0 0 127 0" result="hardAlpha"/>
<feMorphology radius="1" operator="dilate" in="SourceAlpha" result="effect1_dropShadow_398_3067"/>
<feOffset dx="1" dy="1"/>
<feGaussianBlur stdDeviation="5"/>
<feComposite in2="hardAlpha" operator="out"/>
<feColorMatrix type="matrix" values="0 0 0 0 0 0 0 0 0 0 0 0 0 0 0 0 0 0 0.05 0"/>
<feBlend mode="normal" in2="BackgroundImageFix" result="effect1_dropShadow_398_3067"/>
<feColorMatrix in="SourceAlpha" type="matrix" values="0 0 0 0 0 0 0 0 0 0 0 0 0 0 0 0 0 0 127 0" result="hardAlpha"/>
<feMorphology radius="1" operator="dilate" in="SourceAlpha" result="effect2_dropShadow_398_3067"/>
<feOffset dx="1" dy="1"/>
<feGaussianBlur stdDeviation="5"/>
<feComposite in2="hardAlpha" operator="out"/>
<feColorMatrix type="matrix" values="0 0 0 0 0 0 0 0 0 0 0 0 0 0 0 0 0 0 0.05 0"/>
<feBlend mode="normal" in2="effect1_dropShadow_398_3067" result="effect2_dropShadow_398_3067"/>
<feBlend mode="normal" in="SourceGraphic" in2="effect2_dropShadow_398_3067" result="shape"/>
</filter>
</defs>
</svg>
