<svg width="37" height="37" viewBox="0 0 37 37" fill="none" xmlns="http://www.w3.org/2000/svg">
<g filter="url(#filter0_dd_398_3062)">
<circle cx="18.5318" cy="18.2171" r="14.4532" fill="#5868FF"/>
</g>
<g clip-path="url(#clip0_398_3062)">
<path d="M15.6978 18.0046C15.6978 19.4523 16.8715 20.626 18.3192 20.626C19.767 20.626 20.9406 19.4523 20.9406 18.0046C20.9406 17.2807 20.6472 16.6253 20.1728 16.151C19.6985 15.6766 19.0431 15.3832 18.3192 15.3832C16.8715 15.3832 15.6978 16.5568 15.6978 18.0046Z" fill="white" stroke="white" stroke-width="1.3107" stroke-linecap="round" stroke-linejoin="round"/>
<path d="M18.3193 13.1987C20.9735 13.1987 23.1252 15.3503 23.1252 18.0046M18.3193 13.1987C15.665 13.1987 13.5133 15.3503 13.5133 18.0046M18.3193 13.1987V10.7957M23.1252 18.0046C23.1252 20.6588 20.9735 22.8105 18.3193 22.8105M23.1252 18.0046H25.5281M18.3193 22.8105C15.665 22.8105 13.5133 20.6588 13.5133 18.0046M18.3193 22.8105V25.2134M13.5133 18.0046H11.1104" stroke="white" stroke-width="1.3107" stroke-linecap="round"/>
</g>
<defs>
<filter id="filter0_dd_398_3062" x="0.677835" y="0.363199" width="35.7079" height="35.7079" filterUnits="userSpaceOnUse" color-interpolation-filters="sRGB">
<feFlood flood-opacity="0" result="BackgroundImageFix"/>
<feColorMatrix in="SourceAlpha" type="matrix" values="0 0 0 0 0 0 0 0 0 0 0 0 0 0 0 0 0 0 127 0" result="hardAlpha"/>
<feMorphology radius="0.850187" operator="dilate" in="SourceAlpha" result="effect1_dropShadow_398_3062"/>
<feOffset dx="-0.850187" dy="-0.850187"/>
<feGaussianBlur stdDeviation="0.850187"/>
<feComposite in2="hardAlpha" operator="out"/>
<feColorMatrix type="matrix" values="0 0 0 0 0.615658 0 0 0 0 0.746334 0 0 0 0 1 0 0 0 0.1 0"/>
<feBlend mode="normal" in2="BackgroundImageFix" result="effect1_dropShadow_398_3062"/>
<feColorMatrix in="SourceAlpha" type="matrix" values="0 0 0 0 0 0 0 0 0 0 0 0 0 0 0 0 0 0 127 0" result="hardAlpha"/>
<feMorphology radius="0.850187" operator="dilate" in="SourceAlpha" result="effect2_dropShadow_398_3062"/>
<feOffset dx="0.850187" dy="0.850187"/>
<feGaussianBlur stdDeviation="0.850187"/>
<feComposite in2="hardAlpha" operator="out"/>
<feColorMatrix type="matrix" values="0 0 0 0 0.615658 0 0 0 0 0.746334 0 0 0 0 1 0 0 0 0.1 0"/>
<feBlend mode="normal" in2="effect1_dropShadow_398_3062" result="effect2_dropShadow_398_3062"/>
<feBlend mode="normal" in="SourceGraphic" in2="effect2_dropShadow_398_3062" result="shape"/>
</filter>
<clipPath id="clip0_398_3062">
<rect width="16.1536" height="16.1536" fill="white" transform="translate(10.455 10.1403)"/>
</clipPath>
</defs>
</svg>
